<svg class="experience__devices" width="298px" height="97px" viewBox="0 0 298 97" version="1.1" xmlns="http://www.w3.org/2000/svg" xmlns:xlink="http://www.w3.org/1999/xlink">
    <title>Devices</title>
    <g id="Page-1" stroke="none" stroke-width="1" fill="none" fill-rule="evenodd">
        <g id="Desktop-HD-Copy-13" transform="translate(-126.000000, -1083.000000)" fill="#000000" fill-rule="nonzero">
            <g id="Group-3" transform="translate(-73.000000, 975.000000)">
                <path d="M485.673333,108.076087 C491.571734,108.076087 496.353333,112.893892 496.353333,118.836957 L496.353333,118.836957 L496.353333,194.163043 C496.353333,200.106108 491.571734,204.923913 485.673333,204.923913 L485.673333,204.923913 L445.326667,204.923913 C439.428266,204.923913 434.646667,200.106108 434.646667,194.163043 L434.646667,194.163043 L434.646667,118.836957 C434.646667,112.893892 439.428266,108.076087 445.326667,108.076087 L445.326667,108.076087 Z M392.833333,112.35 C398.701359,112.35 403.458333,117.118167 403.458333,123 L403.458333,123 L403.459,129.366416 C403.518536,129.623578 403.55,129.891457 403.55,130.166667 C403.55,130.442303 403.518438,130.710584 403.458724,130.968111 L403.459052,186.033305 C403.518554,186.290399 403.55,186.558202 403.55,186.833333 C403.55,187.108969 403.518438,187.377251 403.458724,187.634778 L403.458333,194 C403.458333,199.881833 398.701359,204.65 392.833333,204.65 L392.833333,204.65 L336.166667,204.65 C330.298641,204.65 325.541667,199.881833 325.541667,194 L325.541667,194 L325.541,187.633584 C325.481464,187.376422 325.45,187.108543 325.45,186.833333 C325.45,186.557697 325.481562,186.289416 325.541276,186.031889 L325.540948,130.966695 C325.481446,130.709601 325.45,130.441798 325.45,130.166667 C325.45,129.891031 325.481562,129.622749 325.541276,129.365222 L325.541667,123 C325.541667,117.118167 330.298641,112.35 336.166667,112.35 L336.166667,112.35 Z M286.862745,113.442857 C292.775441,113.442857 297.568627,118.220618 297.568627,124.114286 L297.568627,124.114286 L297.568627,177.471429 C297.568627,183.365096 292.775441,188.142857 286.862745,188.142857 L286.862745,188.142857 L252.068373,188.142087 L252.068373,196.146087 L263.666667,196.146429 C265.637565,196.146429 267.235294,197.739016 267.235294,199.703571 C267.235294,201.623478 265.709364,203.188132 263.800453,203.258261 L263.666667,203.260714 L249.928276,203.260798 C249.490929,203.4514 249.007853,203.557143 248.5,203.557143 C247.992104,203.557143 247.50899,203.451382 247.071614,203.26075 L233.333333,203.260714 C231.362435,203.260714 229.764706,201.668127 229.764706,199.703571 C229.764706,197.783665 231.290636,196.219011 233.199547,196.148882 L233.333333,196.146429 L244.930373,196.146087 L244.931373,188.142087 L210.137255,188.142857 C204.319925,188.142857 199.586283,183.517974 199.435098,177.75572 L199.431373,177.471429 L199.431373,124.114286 C199.431373,118.220618 204.224559,113.442857 210.137255,113.442857 L210.137255,113.442857 Z M485.673333,115.25 L445.326667,115.25 C443.360533,115.25 441.766667,116.855935 441.766667,118.836957 L441.766667,118.836957 L441.766667,194.163043 C441.766667,196.144065 443.360533,197.75 445.326667,197.75 L445.326667,197.75 L485.673333,197.75 C487.639467,197.75 489.233333,196.144065 489.233333,194.163043 L489.233333,194.163043 L489.233333,118.836957 C489.233333,116.855935 487.639467,115.25 485.673333,115.25 L485.673333,115.25 Z M396.374373,190.374087 L332.624373,190.374087 L332.625,194 C332.625,195.895257 334.106709,197.443628 335.972345,197.544747 L336.166667,197.55 L392.833333,197.55 C394.789342,197.55 396.375,195.960611 396.375,194 L396.375,194 L396.374373,190.374087 Z M465.201087,180.826667 C468.007534,180.826667 470.282609,183.084644 470.282609,185.87 C470.282609,188.655356 468.007534,190.913333 465.201087,190.913333 C462.39464,190.913333 460.119565,188.655356 460.119565,185.87 C460.119565,183.084644 462.39464,180.826667 465.201087,180.826667 Z M396.374373,133.708087 L332.624373,133.708087 L332.624373,183.291087 L396.374373,183.291087 L396.374373,133.708087 Z M290.431373,169.467087 L206.568373,169.467087 L206.568627,177.471429 C206.568627,179.372612 208.06494,180.925437 209.947729,181.023641 L210.137255,181.028571 L286.862745,181.028571 C288.833644,181.028571 290.431373,179.435984 290.431373,177.471429 L290.431373,177.471429 L290.431373,169.467087 Z M286.862745,120.557143 L210.137255,120.557143 C208.166356,120.557143 206.568627,122.14973 206.568627,124.114286 L206.568627,124.114286 L206.568373,162.353087 L290.431373,162.353087 L290.431373,124.114286 C290.431373,122.213103 288.93506,120.660277 287.052271,120.562074 L286.862745,120.557143 Z M392.833333,119.45 L336.166667,119.45 C334.210658,119.45 332.625,121.039389 332.625,123 L332.625,123 L332.624373,126.624087 L396.374373,126.624087 L396.375,123 C396.375,121.104743 394.893291,119.556372 393.027655,119.455253 L392.833333,119.45 Z" id="Devices"></path>
            </g>
        </g>
    </g>
</svg>