<svg class="experience__devices" width="299px" height="102px" viewBox="0 0 299 102" version="1.1">
    <title>Group 5 Copy</title>
    <g id="Page-1" stroke="none" stroke-width="1" fill="none" fill-rule="evenodd">
        <g id="Desktop-HD-Copy-14" transform="translate(-124.000000, -1082.000000)" fill="#000000" fill-rule="nonzero">
            <g id="Group-5-Copy" transform="translate(273.082642, 1133.338867) rotate(-360.000000) translate(-273.082642, -1133.338867) translate(124.082642, 1082.838867)">
                <path d="M196.798674,2.275 C202.955969,2.275 207.947442,7.04316741 207.947442,12.925 L207.947442,12.925 L207.947442,83.925 C207.947442,89.8068326 202.955969,94.575 196.798674,94.575 L196.798674,94.575 L137.338581,94.575 C131.181286,94.575 126.189813,89.8068326 126.189813,83.925 L126.189813,83.925 L126.189813,12.925 C126.189813,7.04316741 131.181286,2.275 137.338581,2.275 L137.338581,2.275 Z M200.514627,81.871 L133.621627,81.871 L133.622325,83.925 C133.622325,85.8223654 135.180537,87.3720725 137.141214,87.4700792 L137.338581,87.475 L196.798674,87.475 C198.851106,87.475 200.51493,85.8856109 200.51493,83.925 L200.51493,83.925 L200.514627,81.871 Z M200.514627,22.411 L133.621627,22.411 L133.621627,74.438 L200.514627,74.438 L200.514627,22.411 Z M196.798674,9.375 L137.338581,9.375 C135.286149,9.375 133.622325,10.9643891 133.622325,12.925 L133.622325,12.925 L133.621627,14.978 L200.514627,14.978 L200.51493,12.925 C200.51493,11.0276346 198.956718,9.47792752 196.996041,9.37992078 L196.798674,9.375 Z" id="Combined-Shape"></path>
                <path d="M287.026667,-5.89750471e-13 C292.925068,-5.89750471e-13 297.706667,4.81780541 297.706667,10.7608696 L297.706667,10.7608696 L297.706667,86.0869565 C297.706667,92.0300207 292.925068,96.8478261 287.026667,96.8478261 L287.026667,96.8478261 L246.68,96.8478261 C240.781599,96.8478261 236,92.0300207 236,86.0869565 L236,86.0869565 L236,10.7608696 C236,4.81780541 240.781599,-5.89750471e-13 246.68,-5.89750471e-13 L246.68,-5.89750471e-13 Z M287.026667,7.17391304 L246.68,7.17391304 C244.713866,7.17391304 243.12,8.77984818 243.12,10.7608696 L243.12,10.7608696 L243.12,86.0869565 C243.12,88.0679779 244.713866,89.673913 246.68,89.673913 L246.68,89.673913 L287.026667,89.673913 C288.9928,89.673913 290.586667,88.0679779 290.586667,86.0869565 L290.586667,86.0869565 L290.586667,10.7608696 C290.586667,8.77984818 288.9928,7.17391304 287.026667,7.17391304 L287.026667,7.17391304 Z M266.55442,72.7505797 C269.360867,72.7505797 271.635942,75.008557 271.635942,77.793913 C271.635942,80.5792691 269.360867,82.8372464 266.55442,82.8372464 C263.747973,82.8372464 261.472899,80.5792691 261.472899,77.793913 C261.472899,75.008557 263.747973,72.7505797 266.55442,72.7505797 Z" id="Combined-Shape"></path>
                <path d="M87.4313725,4 C93.3440681,4 98.1372549,9.13488155 98.1372549,15.4690789 L98.1372549,15.4690789 L98.1372549,72.8144737 C98.1372549,79.1486711 93.3440681,84.2835526 87.4313725,84.2835526 L87.4313725,84.2835526 L52.637,84.283 L52.637,92.885 L64.2352941,92.8853618 C66.2061926,92.8853618 67.8039216,94.596989 67.8039216,96.7083882 C67.8039216,98.7718009 66.2779914,100.453407 64.3690809,100.528778 L64.2352941,100.531414 L50.4969037,100.531504 C50.0595561,100.736353 49.5764804,100.85 49.0686275,100.85 C48.561114,100.85 48.0783447,100.736505 47.6412284,100.531915 L33.9019608,100.531414 C31.9310623,100.531414 30.3333333,98.8197873 30.3333333,96.7083882 C30.3333333,94.6449754 31.8592635,92.9633696 33.768174,92.8879988 L33.9019608,92.8853618 L45.499,92.885 L45.499,84.283 L10.7058824,84.2835526 C4.88703911,84.2835526 0.152446723,79.3103894 0.00360827615,73.1151799 L-5.68434189e-14,72.8144737 L-7.10542736e-14,15.4690789 C-7.10542736e-14,9.13488155 4.7931868,4 10.7058824,4 L10.7058824,4 Z M90.999,64.212 L7.137,64.212 L7.1372549,72.8144737 C7.1372549,74.8577632 8.63356712,76.5266564 10.5163563,76.6322008 L10.7058824,76.6375 L87.4313725,76.6375 C89.4022711,76.6375 91,74.9258728 91,72.8144737 L91,72.8144737 L90.999,64.212 Z M87.4313725,11.6460526 L10.7058824,11.6460526 C8.73498383,11.6460526 7.1372549,13.3576798 7.1372549,15.4690789 L7.1372549,15.4690789 L7.137,56.566 L90.999,56.566 L91,15.4690789 C91,13.4257895 89.5036878,11.7568962 87.6208986,11.6513519 L87.4313725,11.6460526 Z" id="Combined-Shape"></path>
            </g>
        </g>
    </g> 
</svg>