<svg xmlns="http://www.w3.org/2000/svg" width="20" height="21" viewBox="0 0 20 21">
  <path d="M42.7499762,683.187495 C48.091684,683.187495 52.4374531,678.841726 52.4374531,673.500018 C52.4374531,668.15831 48.091684,663.812541 42.7499762,663.812541 C37.4082683,663.812541 33.0624993,668.15831 33.0624993,673.500018 C33.0624993,678.841726 37.4082683,683.187495 42.7499762,683.187495 Z M43.8984262,670.312083 C42.5424953,667.820863 41.0396226,665.774283 40.810932,665.468039 C43.4349797,664.835526 46.200209,665.517668 48.2351544,667.323084 C48.0863434,667.535066 46.8407333,669.209257 43.8984262,670.312083 Z M34.6501343,671.817931 C35.1867084,669.250226 36.9170891,667.116175 39.2320707,666.024259 C39.4502327,666.323445 40.928844,668.372543 42.2998811,670.809747 C38.4293077,671.837615 35.0202354,671.822814 34.6501343,671.817931 Z M51.023577,673.434443 C50.7507887,673.376727 48.0150851,672.821843 45.2617957,673.168102 C45.0371106,672.619626 44.8250521,672.137144 44.5345636,671.542549 C47.5939816,670.293467 48.9805826,668.515937 49.1550283,668.27996 C50.3074838,669.688 51.005381,671.481399 51.023577,673.434443 Z M36.6026062,679.045277 C35.2810075,677.578339 34.4753835,675.637922 34.4753835,673.512644 C34.4753835,673.428035 34.4770619,673.343806 34.4796178,673.259769 C34.8416317,673.267207 38.8514793,673.318896 42.9837402,672.082213 C43.2205942,672.545812 43.4468815,673.016392 43.6545913,673.486476 C40.6624262,674.329217 37.9438887,676.749217 36.6026062,679.045277 Z M47.3733019,680.372064 C47.2884633,679.868716 46.8480575,677.446427 45.7657923,674.472344 C48.3587503,674.057268 50.6368821,674.73674 50.9199701,674.82608 C50.5511279,677.128435 49.2296055,679.116841 47.3733019,680.372064 Z M37.6709477,680.040453 C38.5352798,678.273566 40.881046,675.992764 44.2169908,674.85469 C45.3787159,677.873558 45.8591378,680.40365 45.9821996,681.129623 C43.321569,682.262929 40.1222664,681.951994 37.6709477,680.040453 Z" transform="translate(-33 -663)"/>
</svg>
