<svg xmlns="http://www.w3.org/2000/svg" width="21" height="15" viewBox="0 0 21 15">
  <path d="M50.8749568,634 C51.910492,634 52.7499523,633.16054 52.7499523,632.125004 L52.7499523,620.875031 C52.7499523,619.839496 51.910492,619.000036 50.8749568,619.000036 L34.6249955,619.000036 C33.5894603,619.000036 32.75,619.839496 32.75,620.875031 L32.75,632.125004 C32.75,633.16054 33.5894603,634 34.6249955,634 L50.8749568,634 Z M42.7499762,628.374861 C41.8434155,628.389509 40.5398603,627.145997 39.8822843,626.628725 C36.8976342,624.291619 35.5009624,623.182345 34.6249955,622.468961 L34.6249955,620.875031 L50.8749568,620.875031 L50.8749568,622.468961 C49.9991044,623.182231 48.6027759,624.291275 45.617668,626.628725 C44.959825,627.146188 43.6566894,628.389357 42.7499762,628.374861 Z M50.8749568,632.125004 L34.6249955,632.125004 L34.6249955,624.874961 C35.520074,625.587888 36.7894115,626.58829 38.724145,628.103293 C39.5779104,628.775365 41.0731155,630.259012 42.7499762,630.249971 C44.4185971,630.259012 45.8948432,628.79688 46.775464,628.103598 C48.7101594,626.588633 49.9798402,625.587964 50.8749568,624.874961 L50.8749568,632.125004 Z" transform="translate(-32 -619)"/>
</svg>
