<svg xmlns="http://www.w3.org/2000/svg" width="32" height="21" viewBox="0 0 32 21">
  <path d="M38.7499934,30.25 C40.6830003,30.25 42.2500066,28.6829966 42.2500066,26.75 C42.2500066,24.8170034 40.6830003,23.25 38.7499934,23.25 C38.6953124,23.25 38.6471873,23.263125 38.5941403,23.2658594 C38.9384665,24.2141031 38.7026418,25.275949 37.989294,25.9892954 C37.2759462,26.7026419 36.2140983,26.9384662 35.2658528,26.5941406 C35.2658528,26.6488281 35.2499934,26.6969531 35.2499934,26.75 C35.2499934,28.6829966 36.8169997,30.25 38.7499934,30.25 L38.7499934,30.25 Z M54.309717,27.7015625 C51.3440083,21.9150781 45.4727471,18 38.75,18 C32.0272529,18 26.1543511,21.9178125 23.190283,27.7021094 C22.9365723,28.2039765 22.9365723,28.7965704 23.190283,29.2984375 C26.1559917,35.0849219 32.0272529,39 38.75,39 C45.4727471,39 51.3456489,35.0821875 54.309717,29.2978906 C54.5634277,28.7960235 54.5634277,28.2034296 54.309717,27.7015625 Z M38.75,19.75 C42.6160006,19.75 45.7500133,22.8840068 45.7500133,26.75 C45.7500133,30.6159932 42.6160006,33.75 38.75,33.75 C34.8839994,33.75 31.7499867,30.6159932 31.7499867,26.75 C31.7542063,22.8857559 34.8857486,19.7542196 38.75,19.75 Z M38.75,37.25 C32.8787389,37.25 27.5138849,33.8971094 24.7499734,28.5 C26.3044304,25.448389 28.790333,22.9711108 31.8473306,21.4272656 C30.7060004,22.9049219 29.9999834,24.7358594 29.9999834,26.75 C29.9999834,31.5824916 33.9174993,35.5 38.75,35.5 C43.5825007,35.5 47.5000166,31.5824916 47.5000166,26.75 C47.5000166,24.7358594 46.7939996,22.9049219 45.6526694,21.4272656 C48.709667,22.9711108 51.1955696,25.448389 52.7500266,28.5 C49.986662,33.8971094 44.6212611,37.25 38.75,37.25 Z" transform="translate(-23 -18)"/>
</svg>
