<svg xmlns="http://www.w3.org/2000/svg" width="18" height="19" viewBox="0 0 18 19">
  <path d="M44.5898062,844.249997 L44.5898062,837.472669 L42.3085846,837.472669 L42.3085846,834.832066 L44.5898062,834.832066 L44.5898062,832.882837 C44.5898062,830.621108 45.9726307,829.390642 47.9882356,829.390642 C48.9570138,829.390642 49.7851063,829.464876 50.0273009,829.496118 L50.0273009,831.859394 L48.6288744,831.859394 C47.531236,831.859394 47.3202837,832.378916 47.3202837,833.144562 L47.3202837,834.832066 L49.937465,834.832066 L49.5976144,837.472669 L47.3241747,837.472669 L47.3241747,844.246106 L51.7851092,844.246106 C52.3163808,844.246106 52.7499583,843.81642 52.7499583,843.281257 L52.7499583,827.714888 C52.7499583,827.183616 52.3163808,826.750039 51.7812182,826.750039 L36.2148491,826.750039 C35.6835775,826.750039 35.25,827.183616 35.25,827.714888 L35.25,843.285148 C35.25,843.81642 35.6835775,844.249997 36.2148491,844.249997 L44.5898062,844.249997 Z" transform="translate(-35 -826)"/>
</svg>
