<svg xmlns="http://www.w3.org/2000/svg" width="20" height="20" viewBox="0 0 20 20">
  <path d="M40.67185,736.214826 L40.6713468,736.075889 C40.6691052,735.64674 40.6601389,734.534188 40.6601389,733.816417 C40.6601389,733.816417 37.9257704,734.402353 37.3515454,732.652365 C37.3515454,732.652365 36.9062568,731.515626 36.2656181,731.222658 C36.2656181,731.222658 35.3710737,730.60937 36.3281027,730.621119 C36.3281027,730.621119 37.3007719,730.699244 37.8359345,731.628922 C38.6913783,733.136716 40.1249763,732.703138 40.6835611,732.445303 C40.7734351,731.820305 41.0273408,731.386727 41.3085596,731.128931 C39.1249939,730.886736 36.9218589,730.570308 36.9218589,726.812541 C36.9218589,725.738319 37.2187561,725.199227 37.8437546,724.511744 C37.7421695,724.257838 37.410139,723.210973 37.9453016,721.859391 C38.7617212,721.605485 40.6406077,722.914076 40.6406077,722.914076 C41.4218558,722.695342 42.2616976,722.582046 43.0937192,722.582046 C43.9257408,722.582046 44.7655826,722.695342 45.5468307,722.914076 C45.5468307,722.914076 47.4257554,721.601594 48.2421368,721.859391 C48.7772994,723.214864 48.4452689,724.257838 48.3437219,724.511744 C48.9687205,725.203156 49.3515244,725.74221 49.3515244,726.812541 C49.3515244,730.582057 47.0507334,730.882807 44.8671677,731.128931 C45.2265495,731.437501 45.5312286,732.023437 45.5312286,732.941404 C45.5312286,734.257814 45.5195176,735.886724 45.5195176,736.207044 C45.5195176,736.460949 45.6991894,736.769519 46.1952896,736.679683 C50.1015303,735.382804 52.7499538,731.675804 52.7499538,727.343768 C52.7499538,721.925805 48.355433,717.812541 42.9374696,717.812541 C37.5195061,717.812541 33.375,721.925805 33.375,727.343768 C33.375,731.675804 36.1015484,735.382804 39.996078,736.687504 C40.4960691,736.77734 40.67185,736.468731 40.67185,736.214826 Z" transform="translate(-33 -717)"/>
</svg>
