<svg xmlns="http://www.w3.org/2000/svg" width="18" height="19" viewBox="0 0 18 19">
  <path d="M47.6132518,790.187512 C49.0156074,790.121099 50.2577843,789.800779 51.281227,788.773446 C52.3046316,787.750003 52.6249509,786.507826 52.6952556,785.10547 C52.7773096,783.660161 52.7773096,779.332054 52.6952556,777.886745 C52.6288801,776.48439 52.3085607,775.242213 51.281227,774.21877 C50.2577843,773.195365 49.0156074,772.875046 47.6132518,772.804741 C46.1679427,772.722687 41.8359065,772.722687 40.3905975,772.804741 C38.9921709,772.871117 37.749994,773.191436 36.7226604,774.214879 C35.6953267,775.238322 35.3788983,776.480499 35.3085936,777.882854 C35.2265778,779.328163 35.2265778,783.660161 35.3085936,785.10547 C35.3750073,786.507826 35.6953267,787.750003 36.7226604,788.773446 C37.749994,789.796888 38.98828,790.11717 40.3905975,790.187512 C41.8359065,790.269528 46.1679427,790.269528 47.6132518,790.187512 Z M44.0038701,788.671861 C42.7304509,788.671861 39.9921915,788.773446 38.8437414,788.320299 C38.0781335,788.01562 37.4882683,787.425793 37.1796982,786.656256 C36.7226604,785.503915 36.8281365,782.769546 36.8281365,781.496127 C36.8281365,780.22267 36.7265514,777.48441 37.1796982,776.33596 C37.4843773,775.570352 38.0742044,774.980487 38.8437414,774.671917 C39.9960824,774.214879 42.7304509,774.320355 44.0038701,774.320355 C45.2773275,774.320355 48.0155869,774.21877 49.164037,774.671917 C49.9296449,774.976596 50.5195101,775.566423 50.8280802,776.33596 C51.285118,777.488301 51.1796419,780.22267 51.1796419,781.496127 C51.1796419,782.769546 51.285118,785.507806 50.8280802,786.656256 C50.5234011,787.421864 49.933574,788.011729 49.164037,788.320299 C48.011696,788.777337 45.2773275,788.671861 44.0038701,788.671861 Z M48.6757569,777.871105 C49.2538729,777.871105 49.7226217,777.406285 49.7226217,776.82424 C49.7226217,776.246124 49.2538729,775.777375 48.6757569,775.777375 C48.0976409,775.777375 47.628892,776.246124 47.628892,776.82424 C47.628892,777.402356 48.0937117,777.871105 48.6757569,777.871105 Z M44.0038701,785.984375 C46.4882621,785.984375 48.4921559,783.980481 48.4921559,781.496127 C48.4921559,779.011735 46.4882621,777.007841 44.0038701,777.007841 C41.5195163,777.007841 39.5156225,779.011735 39.5156225,781.496127 C39.5156225,783.980481 41.5195163,785.984375 44.0038701,785.984375 Z M44.0038701,784.414058 C42.3984205,784.414058 41.0859388,783.105468 41.0859388,781.496127 C41.0859388,779.886748 42.3945295,778.578157 44.0038701,778.578157 C45.6132489,778.578157 46.9218395,779.886748 46.9218395,781.496127 C46.9218395,783.105468 45.6093579,784.414058 44.0038701,784.414058 Z" transform="translate(-35 -772)"/>
</svg>
