<svg xmlns="http://www.w3.org/2000/svg" width="21" height="17" viewBox="0 0 21 17">
  <path d="M39.0834506,897.621832 C46.6215414,897.621832 50.7458678,891.37818 50.7458678,885.959453 C50.7458678,885.781803 50.7458678,885.604077 50.7331649,885.426427 C51.5326473,884.842665 52.2306589,884.119324 52.7889385,883.307177 C52.0529326,883.624406 51.2534502,883.852868 50.4285621,883.941674 C51.2787798,883.434091 51.9259798,882.634609 52.2305826,881.682806 C51.4437269,882.152356 50.5554386,882.494992 49.6290797,882.672642 C48.8802946,881.873159 47.8143563,881.378242 46.6341299,881.378242 C44.3625975,881.378242 42.5351712,883.218333 42.5351712,885.4772 C42.5351712,885.794468 42.5732417,886.111697 42.63668,886.416262 C39.2357329,886.238574 36.2027125,884.614242 34.1849713,882.12695 C33.829595,882.73608 33.6266154,883.434053 33.6266154,884.195465 C33.6266154,885.61678 34.3499185,886.873109 35.4539655,887.609153 C34.781436,887.583824 34.1468626,887.393471 33.6012096,887.088906 L33.6012096,887.139641 C33.6012096,889.132015 35.0098595,890.781715 36.8880212,891.162459 C36.5454241,891.251265 36.177383,891.302038 35.80938,891.302038 C35.5428477,891.302038 35.2890625,891.276671 35.0352272,891.2386 C35.5555507,892.862971 37.0657094,894.043159 38.86773,894.081268 C37.4590801,895.185315 35.6950919,895.832515 33.7788978,895.832515 C33.4362625,895.832515 33.119033,895.819812 32.7890625,895.781779 C34.603786,896.949227 36.7611066,897.621832 39.0834506,897.621832 Z" transform="translate(-32 -881)"/>
</svg>
