<?xml version="1.0" encoding="utf-8"?>
<!-- Generator: Adobe Illustrator 26.4.1, SVG Export Plug-In . SVG Version: 6.00 Build 0)  -->
<svg version="1.1" id="Layer_1" xmlns="http://www.w3.org/2000/svg" xmlns:xlink="http://www.w3.org/1999/xlink" x="0px" y="0px"
	 viewBox="0 0 20 20" style="enable-background:new 0 0 20 20;" xml:space="preserve">
<g>
	<path d="M10,20c-0.4,0-0.6-0.3-0.6-0.6V0.7C9.4,0.3,9.7,0,10,0c0.4,0,0.6,0.3,0.6,0.6v18.7C10.6,19.7,10.3,20,10,20z"/>
	<path d="M10,20c-0.2,0-0.3-0.1-0.4-0.2l-7.6-7.6c-0.2-0.2-0.2-0.7,0-0.9c0.2-0.2,0.7-0.2,0.9,0l7.2,7.2l7.2-7.2
		c0.2-0.2,0.7-0.2,0.9,0c0.2,0.2,0.2,0.7,0,0.9l-7.6,7.6C10.3,19.9,10.2,20,10,20z"/>
</g>
</svg>
